<svg xmlns="http://www.w3.org/2000/svg" xmlns:xlink="http://www.w3.org/1999/xlink" width="500"
    height="500" preserveAspectRatio="xMidYMid meet" version="1.0" viewBox="0 0 375 375"
    zoomAndPan="magnify">
    <defs>
        <clipPath id="3cb425ac20">
            <path
                d="M 187.5 0 C 83.945312 0 0 83.945312 0 187.5 C 0 291.054688 83.945312 375 187.5 375 C 291.054688 375 375 291.054688 375 187.5 C 375 83.945312 291.054688 0 187.5 0 Z M 187.5 0"
                clip-rule="nonzero" />
        </clipPath>
        <clipPath id="11f9c750db">
            <path d="M 59.414062 304 L 272 304 L 272 332.25 L 59.414062 332.25 Z M 59.414062 304"
                clip-rule="nonzero" />
        </clipPath>
        <clipPath id="a64f4cd018">
            <path d="M 228 61 L 315.914062 61 L 315.914062 150 L 228 150 Z M 228 61"
                clip-rule="nonzero" />
        </clipPath>
    </defs>
    <g clip-path="url(#3cb425ac20)">
        <rect width="450" height="450" x="-37.5" y="-37.5" fill="#fff" fill-opacity="1" />
    </g>
    <path fill="#000" fill-opacity="1" fill-rule="nonzero"
        d="M 165.441406 203.058594 C 164.292969 203.058594 163.214844 202.542969 162.488281 201.65625 L 141.886719 176.214844 C 141.339844 175.535156 141.042969 174.691406 141.042969 173.828125 L 141.042969 154.933594 C 141.042969 153.515625 141.828125 152.226562 143.082031 151.566406 C 144.332031 150.914062 145.847656 151.007812 147.007812 151.816406 C 152.453125 155.605469 158.828125 157.617188 165.441406 157.617188 C 172.054688 157.617188 178.425781 155.613281 183.871094 151.816406 C 185.03125 151.007812 186.550781 150.914062 187.800781 151.566406 C 189.054688 152.21875 189.839844 153.515625 189.839844 154.933594 L 189.839844 173.828125 C 189.839844 174.699219 189.542969 175.542969 188.996094 176.214844 L 168.394531 201.65625 C 167.675781 202.539062 166.589844 203.058594 165.441406 203.058594 Z M 148.636719 172.476562 L 165.441406 193.226562 L 182.246094 172.476562 L 182.246094 161.484375 C 177.003906 163.929688 171.296875 165.203125 165.441406 165.203125 C 159.585938 165.203125 153.878906 163.929688 148.636719 161.484375 Z M 148.636719 172.476562" />
    <path fill="#000" fill-opacity="1" fill-rule="nonzero"
        d="M 165.441406 165.203125 C 143.382812 165.203125 125.445312 147.261719 125.445312 125.21875 L 125.445312 122.667969 C 125.445312 120.570312 127.148438 118.871094 129.242188 118.871094 C 131.339844 118.871094 133.039062 120.570312 133.039062 122.667969 L 133.039062 125.21875 C 133.039062 143.078125 147.578125 157.617188 165.449219 157.617188 C 183.3125 157.617188 197.855469 143.085938 197.855469 125.21875 L 197.855469 119.074219 C 197.855469 116.980469 199.554688 115.277344 201.652344 115.277344 C 203.746094 115.277344 205.449219 116.980469 205.449219 119.074219 L 205.449219 125.21875 C 205.441406 147.261719 187.5 165.203125 165.441406 165.203125 Z M 165.441406 165.203125" />
    <path fill="#000" fill-opacity="1" fill-rule="nonzero"
        d="M 129.238281 126.464844 C 128.003906 126.464844 126.882812 125.863281 126.191406 124.925781 C 124.136719 123.074219 118.332031 117.613281 117.601562 96.765625 C 117.4375 96.589844 117.277344 96.390625 117.132812 96.1875 C 115.378906 93.742188 113.5625 88.507812 118.03125 71.394531 C 118.058594 71.289062 118.089844 71.183594 118.128906 71.082031 C 118.28125 70.660156 121.769531 61.210938 134.253906 57.722656 C 138.222656 49.609375 148.730469 37.558594 165.59375 40.3125 C 166.984375 40.542969 168.136719 41.519531 168.585938 42.855469 C 168.617188 42.953125 168.671875 43.125 168.738281 43.355469 C 175.789062 41.867188 189.074219 40.363281 196.320312 47.929688 C 196.945312 48.582031 197.3125 49.441406 197.367188 50.34375 C 197.398438 50.902344 197.375 52.78125 195.863281 54.640625 C 197.839844 55.847656 199.972656 57.394531 202.074219 59.371094 C 208.699219 65.601562 216.417969 77.457031 215.574219 98.585938 C 215.5625 98.953125 215.488281 99.316406 215.371094 99.667969 C 215.210938 100.128906 211.382812 111.140625 204.828125 121.152344 C 203.875 122.613281 202.039062 123.234375 200.394531 122.652344 C 198.746094 122.074219 197.703125 120.445312 197.867188 118.707031 C 198.855469 108.378906 198.472656 89.945312 193.238281 84.457031 C 192.441406 83.617188 191.613281 83.183594 190.609375 83.085938 C 175.855469 90.480469 155.058594 90.480469 140.296875 83.089844 C 139.433594 83.195312 138.703125 83.597656 137.984375 84.351562 C 132.441406 90.117188 132 110.644531 133.019531 122.273438 C 133.027344 122.335938 133.035156 122.410156 133.035156 122.476562 C 133.132812 124.539062 131.5625 126.304688 129.5 126.445312 C 129.414062 126.457031 129.324219 126.464844 129.238281 126.464844 Z M 190.140625 75.472656 C 193.425781 75.472656 196.382812 76.765625 198.730469 79.222656 C 203.65625 84.382812 205.332031 94.441406 205.765625 103.238281 C 206.90625 100.621094 207.671875 98.605469 208 97.707031 C 209.09375 63.945312 186.179688 58.371094 185.203125 58.152344 C 183.324219 57.722656 182.046875 55.957031 182.257812 54.039062 C 182.460938 52.121094 184.070312 50.664062 185.996094 50.652344 C 186.132812 50.652344 186.265625 50.652344 186.390625 50.644531 C 179.8125 48.65625 170.128906 50.632812 166.507812 51.753906 C 165.238281 52.148438 163.851562 51.84375 162.855469 50.960938 C 161.886719 50.097656 161.425781 48.800781 161.632812 47.527344 C 155.765625 47.273438 150.589844 49.421875 146.191406 53.941406 C 142.324219 57.921875 140.503906 62.332031 140.488281 62.378906 C 140.023438 63.558594 138.992188 64.421875 137.753906 64.683594 C 128.625 66.632812 125.738281 72.574219 125.316406 73.546875 C 122.019531 86.261719 122.816406 90.445312 123.179688 91.492188 C 124.324219 92.132812 125.105469 93.347656 125.128906 94.738281 C 125.167969 96.660156 125.253906 98.710938 125.421875 100.78125 C 126.183594 92.324219 128.109375 83.65625 132.492188 79.097656 C 134.917969 76.574219 137.976562 75.335938 141.351562 75.492188 C 141.914062 75.519531 142.453125 75.671875 142.949219 75.925781 C 155.765625 82.722656 175.097656 82.722656 187.914062 75.925781 C 188.40625 75.664062 188.949219 75.519531 189.507812 75.492188 C 189.726562 75.480469 189.9375 75.472656 190.140625 75.472656 Z M 121.628906 91.019531 Z M 121.625 91.019531 Z M 121.617188 91.019531 Z M 121.617188 91.019531" />
    <path fill="#000" fill-opacity="1" fill-rule="nonzero"
        d="M 241.480469 216.324219 L 89.40625 216.324219 C 88.292969 216.324219 87.238281 215.835938 86.511719 214.988281 C 85.796875 214.136719 85.480469 213.015625 85.65625 211.914062 C 87.546875 200.347656 93.535156 189.738281 102.507812 182.027344 C 111.582031 174.230469 123.140625 169.933594 135.050781 169.933594 L 144.839844 169.933594 C 146.269531 169.933594 147.515625 170.726562 148.164062 171.890625 L 165.441406 193.226562 L 182.71875 171.890625 C 183.363281 170.726562 184.609375 169.933594 186.042969 169.933594 L 195.832031 169.933594 C 207.734375 169.933594 219.300781 174.230469 228.375 182.027344 C 237.347656 189.738281 243.332031 200.355469 245.226562 211.914062 C 245.402344 213.015625 245.09375 214.136719 244.375 214.988281 C 243.648438 215.835938 242.59375 216.324219 241.480469 216.324219 Z M 94.128906 208.738281 L 236.761719 208.738281 C 231.738281 190.667969 214.882812 177.53125 195.832031 177.53125 L 187.925781 177.53125 L 168.386719 201.65625 C 167.667969 202.542969 166.582031 203.058594 165.433594 203.058594 C 164.289062 203.058594 163.207031 202.542969 162.480469 201.65625 L 142.941406 177.53125 L 135.039062 177.53125 C 116.007812 177.527344 99.152344 190.660156 94.128906 208.738281 Z M 94.128906 208.738281" />
    <path fill="#000" fill-opacity="1" fill-rule="nonzero"
        d="M 252.285156 312.449219 L 78.597656 312.449219 C 76.703125 312.449219 75.101562 311.058594 74.839844 309.183594 L 61.152344 213.070312 C 60.996094 211.980469 61.324219 210.875 62.042969 210.042969 C 62.761719 209.214844 63.808594 208.738281 64.910156 208.738281 L 265.976562 208.738281 C 267.078125 208.738281 268.125 209.214844 268.84375 210.042969 C 269.5625 210.875 269.894531 211.976562 269.734375 213.070312 L 256.042969 309.183594 C 255.78125 311.058594 254.179688 312.449219 252.285156 312.449219 Z M 81.890625 304.855469 L 248.988281 304.855469 L 261.601562 216.332031 L 69.289062 216.332031 Z M 81.890625 304.855469" />
    <g clip-path="url(#11f9c750db)">
        <path fill="#000" fill-opacity="1" fill-rule="nonzero"
            d="M 247.910156 332.207031 L 82.980469 332.207031 C 69.988281 332.207031 59.417969 321.640625 59.417969 308.652344 C 59.417969 306.554688 61.121094 304.855469 63.21875 304.855469 L 267.679688 304.855469 C 269.773438 304.855469 271.476562 306.554688 271.476562 308.652344 C 271.46875 321.640625 260.902344 332.207031 247.910156 332.207031 Z M 67.46875 312.449219 C 69.175781 319.421875 75.484375 324.613281 82.980469 324.613281 L 247.910156 324.613281 C 255.402344 324.613281 261.710938 319.421875 263.421875 312.449219 Z M 67.46875 312.449219" />
    </g>
    <path fill="#000" fill-opacity="1" fill-rule="nonzero"
        d="M 165.441406 287.917969 C 150.371094 287.917969 138.109375 275.660156 138.109375 260.59375 C 138.109375 245.527344 150.371094 233.269531 165.441406 233.269531 C 180.511719 233.269531 192.773438 245.527344 192.773438 260.59375 C 192.773438 275.660156 180.515625 287.917969 165.441406 287.917969 Z M 165.441406 240.863281 C 154.558594 240.863281 145.703125 249.710938 145.703125 260.59375 C 145.703125 271.472656 154.558594 280.324219 165.441406 280.324219 C 176.324219 280.324219 185.179688 271.472656 185.179688 260.59375 C 185.179688 249.710938 176.324219 240.863281 165.441406 240.863281 Z M 165.441406 240.863281" />
    <g clip-path="url(#a64f4cd018)">
        <path fill="#000" fill-opacity="1" fill-rule="nonzero"
            d="M 276.101562 149.007812 L 268.34375 149.007812 C 264.71875 149.007812 261.792969 146.1875 261.523438 142.453125 L 261.164062 137.421875 C 259.859375 136.976562 258.582031 136.441406 257.335938 135.835938 L 253.523438 139.144531 C 250.691406 141.601562 246.625 141.523438 244.058594 138.957031 L 238.574219 133.476562 C 236.011719 130.910156 235.929688 126.84375 238.390625 124.011719 L 241.699219 120.203125 C 241.09375 118.957031 240.558594 117.679688 240.109375 116.375 L 235.082031 116.015625 C 231.34375 115.753906 228.519531 112.820312 228.519531 109.195312 L 228.519531 101.4375 C 228.519531 97.8125 231.34375 94.882812 235.082031 94.617188 L 240.109375 94.261719 C 240.558594 92.957031 241.09375 91.679688 241.699219 90.433594 L 238.390625 86.625 C 235.929688 83.789062 236.011719 79.722656 238.574219 77.160156 L 244.058594 71.675781 C 246.625 69.113281 250.691406 69.035156 253.519531 71.492188 L 257.328125 74.800781 C 258.574219 74.195312 259.855469 73.660156 261.160156 73.210938 L 261.515625 68.183594 C 261.777344 64.441406 264.710938 61.625 268.335938 61.625 L 276.097656 61.625 C 279.722656 61.625 282.65625 64.445312 282.917969 68.183594 L 283.277344 73.210938 C 284.582031 73.660156 285.859375 74.195312 287.105469 74.800781 L 290.914062 71.492188 C 293.75 69.035156 297.816406 69.113281 300.375 71.675781 L 305.859375 77.160156 C 308.425781 79.722656 308.496094 83.789062 306.042969 86.617188 L 302.734375 90.425781 C 303.34375 91.671875 303.875 92.949219 304.324219 94.253906 L 309.355469 94.609375 C 313.09375 94.875 315.914062 97.808594 315.914062 101.433594 L 315.914062 109.191406 C 315.914062 112.8125 313.09375 115.742188 309.355469 116.011719 L 304.324219 116.367188 C 303.875 117.671875 303.34375 118.949219 302.734375 120.195312 L 306.042969 124.003906 C 308.503906 126.839844 308.425781 130.90625 305.859375 133.460938 L 300.375 138.945312 C 297.8125 141.507812 293.742188 141.589844 290.910156 139.128906 L 287.097656 135.820312 C 285.851562 136.429688 284.574219 136.960938 283.269531 137.410156 L 282.914062 142.4375 C 282.65625 146.1875 279.722656 149.007812 276.101562 149.007812 Z M 269.0625 141.417969 L 275.378906 141.417969 L 275.886719 134.265625 C 276.003906 132.632812 277.152344 131.261719 278.738281 130.851562 C 281.171875 130.234375 283.507812 129.265625 285.675781 127.980469 C 287.085938 127.140625 288.867188 127.300781 290.105469 128.375 L 295.523438 133.074219 L 299.992188 128.605469 L 295.292969 123.1875 C 294.21875 121.949219 294.058594 120.164062 294.898438 118.757812 C 296.191406 116.589844 297.152344 114.265625 297.773438 111.824219 C 298.171875 110.238281 299.550781 109.089844 301.1875 108.972656 L 308.339844 108.464844 L 308.339844 102.152344 L 301.1875 101.644531 C 299.550781 101.523438 298.179688 100.378906 297.773438 98.789062 C 297.152344 96.359375 296.183594 94.023438 294.898438 91.855469 C 294.058594 90.445312 294.21875 88.667969 295.292969 87.425781 L 299.992188 82.011719 L 295.523438 77.542969 L 290.105469 82.242188 C 288.867188 83.316406 287.078125 83.472656 285.675781 82.636719 C 283.507812 81.34375 281.179688 80.382812 278.738281 79.761719 C 277.152344 79.359375 276.003906 77.984375 275.886719 76.347656 L 275.378906 69.199219 L 269.0625 69.199219 L 268.554688 76.347656 C 268.4375 77.984375 267.289062 79.355469 265.699219 79.761719 C 263.269531 80.382812 260.933594 81.351562 258.765625 82.636719 C 257.355469 83.472656 255.574219 83.316406 254.335938 82.242188 L 248.917969 77.542969 L 244.449219 82.011719 L 249.148438 87.425781 C 250.222656 88.667969 250.378906 90.453125 249.542969 91.855469 C 248.25 94.019531 247.289062 96.351562 246.667969 98.789062 C 246.265625 100.378906 244.890625 101.523438 243.253906 101.644531 L 236.101562 102.152344 L 236.101562 108.464844 L 243.253906 108.972656 C 244.890625 109.089844 246.261719 110.238281 246.667969 111.820312 C 247.289062 114.257812 248.257812 116.589844 249.542969 118.753906 C 250.378906 120.164062 250.222656 121.949219 249.148438 123.179688 L 244.449219 128.597656 L 248.917969 133.066406 L 254.335938 128.367188 C 255.574219 127.292969 257.355469 127.136719 258.765625 127.972656 C 260.933594 129.265625 263.269531 130.226562 265.699219 130.847656 C 267.289062 131.246094 268.4375 132.625 268.554688 134.261719 Z M 269.0625 141.417969" />
    </g>
    <path fill="#000" fill-opacity="1" fill-rule="nonzero"
        d="M 272.21875 125.285156 C 261.210938 125.285156 252.253906 116.328125 252.253906 105.320312 C 252.253906 94.316406 261.210938 85.359375 272.21875 85.359375 C 283.230469 85.359375 292.1875 94.316406 292.1875 105.320312 C 292.1875 116.328125 283.234375 125.285156 272.21875 125.285156 Z M 272.21875 92.945312 C 265.398438 92.945312 259.847656 98.492188 259.847656 105.3125 C 259.847656 112.136719 265.398438 117.683594 272.21875 117.683594 C 279.042969 117.683594 284.59375 112.136719 284.59375 105.3125 C 284.59375 98.5 279.042969 92.945312 272.21875 92.945312 Z M 272.21875 92.945312" />
</svg>